<svg width="32" height="32" viewBox="0 0 32 32" fill="none" xmlns="http://www.w3.org/2000/svg">
<path d="M15.4244 7.26962C15.4525 6.84689 15.6195 6.40765 15.8306 6.04272C15.8284 6.03852 15.8261 6.03436 15.8239 6.0301C15.7717 5.92745 15.7525 5.81097 15.7334 5.69535C15.723 5.63222 15.7126 5.56936 15.697 5.50913C15.5522 4.95278 15.022 4.63262 14.5163 4.45345C14.3912 4.47518 14.2669 4.49306 14.1431 4.51088C13.8864 4.5478 13.6317 4.58444 13.3763 4.65449C11.7545 5.09937 10.3096 6.21342 9.34761 7.57934C8.21253 9.19097 7.70567 11.2531 8.04365 13.2029C8.05408 13.2637 8.06531 13.3244 8.07735 13.385C8.08939 13.4455 8.10222 13.5059 8.11585 13.5661C8.12949 13.6263 8.14392 13.6863 8.15914 13.7461C8.17437 13.8059 8.19039 13.8655 8.20719 13.9249C8.22402 13.9842 8.24161 14.0434 8.25999 14.1023C8.27836 14.1612 8.29752 14.2199 8.31746 14.2783C8.33738 14.3367 8.35808 14.3948 8.37955 14.4527C8.40103 14.5106 8.42327 14.5681 8.44627 14.6254C8.46928 14.6827 8.49304 14.7396 8.51755 14.7962C8.54207 14.8529 8.56732 14.9092 8.59331 14.9651C8.61932 15.0211 8.64607 15.0767 8.67355 15.132C8.70104 15.1872 8.72925 15.2421 8.75818 15.2966C8.7871 15.3511 8.81675 15.4052 8.84712 15.4589C8.87749 15.5126 8.90857 15.5659 8.94036 15.6188C8.97213 15.6717 9.00461 15.7242 9.0378 15.7762C9.07096 15.8283 9.10482 15.8798 9.13936 15.931C9.29105 16.1585 9.45136 16.3802 9.61167 16.6019C9.77257 16.8245 9.93349 17.047 10.0857 17.2755C10.6243 18.084 11.0877 18.9526 11.3648 19.8875C11.4157 20.0542 11.4596 20.2227 11.4967 20.393C11.5337 20.5634 11.5637 20.7349 11.5867 20.9077C11.6031 21.0269 11.6131 21.1482 11.6231 21.2691C11.6633 21.7547 11.7029 22.2336 12.1473 22.5439C12.8529 23.037 14.1308 23.0757 14.9796 23.0824C15.0476 23.0829 15.1136 23.0878 15.179 23.0926C15.2951 23.1012 15.4093 23.1097 15.5287 23.0933V17.2377C15.4014 16.5248 15.4344 15.8929 15.798 15.2463C15.8446 15.1634 15.8983 15.0811 15.9558 15.0054C15.5456 14.4978 15.3749 13.8957 15.4454 13.2455C15.4522 13.1859 15.461 13.1266 15.4717 13.0675C15.4823 13.0085 15.4949 12.9498 15.5094 12.8916C15.5238 12.8334 15.5401 12.7757 15.5583 12.7185C15.5765 12.6613 15.5965 12.6048 15.6182 12.5489C15.6401 12.493 15.6637 12.4379 15.689 12.3835C15.7144 12.3291 15.7415 12.2756 15.7703 12.223C15.7991 12.1704 15.8296 12.1187 15.8617 12.0681C15.8939 12.0174 15.9276 11.9679 15.9629 11.9194C15.576 11.5108 15.4135 10.9577 15.4263 10.4023C15.4271 10.3668 15.4286 10.3313 15.4309 10.2958C15.4331 10.2604 15.436 10.225 15.4396 10.1896C15.4432 10.1543 15.4476 10.1191 15.4525 10.0839C15.4576 10.0487 15.4633 10.0137 15.4696 9.97871C15.476 9.94377 15.4831 9.90897 15.4908 9.87431C15.4986 9.83966 15.507 9.80516 15.5161 9.77083C15.5252 9.7365 15.535 9.70236 15.5454 9.66841C15.5559 9.63446 15.567 9.60074 15.5787 9.56723C15.5905 9.53372 15.603 9.50045 15.616 9.46742C15.6291 9.43442 15.6429 9.40166 15.6572 9.36917C15.6716 9.3367 15.6866 9.30452 15.7022 9.27262C15.7179 9.24074 15.7341 9.20917 15.751 9.17793C15.7679 9.14668 15.7853 9.11578 15.8034 9.08522C15.8215 9.05466 15.8402 9.02447 15.8595 8.99464C15.8788 8.96481 15.8986 8.93538 15.919 8.90633C15.9395 8.87731 15.9605 8.84869 15.982 8.82047C15.5862 8.3724 15.3846 7.871 15.4244 7.26962Z" fill="#5964F5"/>
<path fill-rule="evenodd" clip-rule="evenodd" d="M18.4231 4.8822C18.1787 4.64084 17.9494 4.53601 17.6162 4.46267C17.3662 4.44353 17.1508 4.47583 16.9289 4.5994C16.6049 4.77984 16.375 5.07859 16.2716 5.43286L16.2783 5.45214C16.3042 5.52735 16.3307 5.60424 16.3762 5.66986C16.5674 5.94573 16.8222 5.85244 17.0727 5.7607C17.2225 5.70583 17.3709 5.65152 17.5032 5.67704C17.5515 5.68638 17.5923 5.71104 17.6192 5.75291C17.6624 5.82018 17.6682 5.91685 17.6521 5.99332C17.6252 6.12068 17.5381 6.21123 17.4319 6.27991C17.1225 6.47992 16.6784 6.46458 16.3338 6.38592C16.1124 6.74017 15.9962 7.15947 16.032 7.57736C16.0583 7.88439 16.1881 8.18837 16.428 8.38852C16.6998 8.61526 16.8477 8.5492 17.0202 8.47213C17.1073 8.43325 17.2006 8.39158 17.3192 8.38326C17.4008 8.37757 17.5041 8.40392 17.5634 8.46307C17.6051 8.50462 17.6188 8.55962 17.6177 8.61721C17.6153 8.74193 17.5518 8.85449 17.4591 8.93496C17.2184 9.14399 16.7871 9.12663 16.4903 9.09916C16.276 9.45564 16.0934 9.87469 16.0434 10.2901C15.9962 10.6835 16.0723 11.0675 16.3243 11.3808C16.6612 11.7996 16.8903 11.6673 17.1147 11.5377C17.2362 11.4676 17.3564 11.3982 17.4916 11.4175C17.5456 11.4252 17.5928 11.4553 17.6246 11.4994C17.6732 11.5669 17.6792 11.6554 17.6661 11.7351C17.6434 11.874 17.5685 11.9906 17.4539 12.0717C17.1875 12.2601 16.7979 12.2554 16.4905 12.2036C16.4085 12.3152 16.3354 12.4366 16.2722 12.5598C16.0348 13.0229 15.9522 13.5413 16.1154 14.0432C16.4092 14.9463 16.7859 14.8516 17.0936 14.7743C17.2253 14.7412 17.3444 14.7112 17.4388 14.7641C17.5407 14.8212 17.572 14.9284 17.5989 15.0337C17.5899 15.0676 17.5805 15.1014 17.5673 15.1338C17.5136 15.2655 17.4034 15.3565 17.2735 15.4086C17.0043 15.5165 16.7146 15.4739 16.4553 15.3633C16.2645 15.6169 16.1491 15.9807 16.1117 16.293C16.0556 16.7635 16.128 17.318 16.433 17.6979C16.6093 17.9173 16.8614 18.0655 17.1427 18.0943C17.4166 18.1222 17.675 18.063 17.8886 17.8839C18.0507 17.7479 18.1801 17.5375 18.1964 17.3238C18.2068 17.1868 18.1706 17.0514 18.0785 16.9474C17.9164 16.7645 17.6963 16.7478 17.4713 16.7309L17.4537 16.7295C17.3972 16.6789 17.3429 16.6271 17.3052 16.5603C17.268 16.4944 17.25 16.4184 17.2745 16.3448C17.2991 16.2706 17.3609 16.2159 17.4291 16.1818C17.6208 16.086 17.8749 16.1216 18.07 16.1921C18.3382 16.289 18.5536 16.4696 18.6737 16.7306C18.86 17.1353 18.7722 17.5528 18.6246 17.9519C18.9867 18.0577 19.362 18.0492 19.7099 17.8942C20.0189 17.7565 20.3278 17.4632 20.4301 17.1327C20.4465 17.0796 20.4564 17.0238 20.4663 16.968C20.4794 16.8944 20.4925 16.8208 20.5206 16.7528C20.5501 16.6817 20.5957 16.6225 20.6689 16.5934C20.7542 16.5596 20.8639 16.5716 20.9462 16.6089C21.0097 16.6377 21.0557 16.6862 21.0793 16.7521C21.1633 16.9861 21.0185 17.2869 20.904 17.5247C20.8802 17.5741 20.8576 17.6209 20.8388 17.6638C21.1315 17.6691 21.415 17.6196 21.6455 17.4263C21.9448 17.1754 22.02 16.826 22.0507 16.4552C22.1611 16.3608 22.2917 16.3042 22.4222 16.2478C22.5397 16.1969 22.6571 16.1461 22.7592 16.0678C23.003 15.8808 23.0656 15.6128 23.1059 15.3243C23.0693 15.327 23.0326 15.3293 22.996 15.3312C22.6461 15.3508 22.4784 15.2123 22.2339 14.993C22.195 15.0439 22.1541 15.0932 22.1112 15.1408C21.6535 15.6541 21.1004 15.9953 20.4001 16.0326C19.9995 16.054 19.2641 15.8786 18.9666 15.5964C18.9021 15.5353 18.8496 15.4543 18.851 15.3624C18.8522 15.2868 18.889 15.2195 18.9424 15.1678C18.9999 15.1122 19.0659 15.0893 19.1453 15.094C19.2432 15.0997 19.35 15.1432 19.4462 15.1823C19.4672 15.1909 19.4877 15.1992 19.5075 15.2069L19.5553 15.2256C19.8106 15.3252 20.0756 15.4287 20.3522 15.437C20.7825 15.4499 21.1538 15.2398 21.4557 14.9495C21.8815 14.5402 21.9061 14.2936 21.9154 13.7216C21.9896 13.6418 22.1114 13.5378 22.2257 13.5344C22.4127 13.5288 22.4522 13.7615 22.4971 14.0262C22.5365 14.2586 22.5802 14.5156 22.7314 14.6579C22.8143 14.7359 22.9119 14.7595 23.0232 14.7546C23.2689 14.6433 23.4463 14.4393 23.5776 14.2084C23.7221 13.9544 23.7767 13.6826 23.7811 13.3928C23.7933 12.5887 23.3993 12.3451 23.1007 12.1604C22.944 12.0636 22.8136 11.983 22.782 11.8461C22.7626 11.7624 22.7974 11.6657 22.8427 11.5957C22.8781 11.5409 22.9318 11.5005 22.9963 11.4877C23.2315 11.4411 23.478 11.642 23.6866 11.8122C23.7572 11.8697 23.8234 11.9237 23.8834 11.9634L23.8986 11.9733C24.0031 11.7792 24.06 11.5498 24.0487 11.3285C24.0323 11.0058 23.8845 10.7223 23.6459 10.5084C23.3539 10.2468 22.9597 10.1357 22.573 10.1556C22.5796 10.6794 22.447 11.2195 22.2102 11.6851C21.7945 12.5022 21.1776 12.9458 20.3265 13.2261C20.4356 13.3939 20.542 13.5645 20.6214 13.7489C20.6816 13.8886 20.7564 14.114 20.6911 14.2611C20.6534 14.3461 20.578 14.389 20.4934 14.418C20.4099 14.4466 20.3021 14.4647 20.2215 14.4183C20.1314 14.3664 20.0863 14.1668 20.0531 14.0198C20.0428 13.9742 20.0336 13.9336 20.0246 13.9041C19.9586 13.6881 19.8156 13.5246 19.6176 13.4204C19.1312 13.1644 18.6767 13.3203 18.3033 13.6848C18.2805 13.7071 18.2571 13.7324 18.2328 13.7586C18.1546 13.8432 18.0681 13.9367 17.9665 13.9657C17.9565 13.9687 17.9464 13.9711 17.9361 13.973C17.9259 13.9749 17.9156 13.9763 17.9052 13.9772C17.8948 13.9781 17.8844 13.9784 17.874 13.9782C17.8636 13.978 17.8532 13.9773 17.8428 13.9761C17.8325 13.9749 17.8222 13.9731 17.8121 13.9709C17.8019 13.9686 17.7918 13.9658 17.782 13.9625C17.7721 13.9593 17.7624 13.9555 17.7528 13.9512C17.7433 13.947 17.7341 13.9422 17.725 13.937C17.6625 13.9006 17.6141 13.8376 17.599 13.7664C17.5715 13.637 17.6406 13.5213 17.7054 13.4151C17.7853 13.2841 17.8928 13.1639 18.0077 13.0627C18.3867 12.7289 18.8412 12.7318 19.3024 12.7349C19.573 12.7366 19.846 12.7384 20.1073 12.6721C20.7472 12.5099 21.3055 12.058 21.6373 11.4911C21.6473 11.4739 21.6572 11.4566 21.6668 11.4391C21.6765 11.4216 21.6859 11.4041 21.6951 11.3864C21.7043 11.3687 21.7133 11.351 21.7221 11.3331C21.7309 11.3152 21.7394 11.2972 21.7477 11.2791C21.7561 11.261 21.7642 11.2428 21.7721 11.2245C21.78 11.2061 21.7877 11.1877 21.7951 11.1693C21.8026 11.1508 21.8098 11.1322 21.8168 11.1135C21.8238 11.0949 21.8306 11.0761 21.8371 11.0573C21.8436 11.0385 21.85 11.0196 21.856 11.0006C21.8621 10.9816 21.868 10.9626 21.8736 10.9434C21.8792 10.9243 21.8846 10.9051 21.8897 10.8859C21.8949 10.8666 21.8998 10.8473 21.9045 10.8279C21.9092 10.8085 21.9136 10.7891 21.9179 10.7696C21.9221 10.7501 21.926 10.7306 21.9298 10.711C21.9335 10.6914 21.937 10.6718 21.9403 10.6521C21.9433 10.6341 21.946 10.6161 21.9486 10.598L21.9493 10.593C21.9521 10.5733 21.9547 10.5535 21.957 10.5337C21.9593 10.5139 21.9613 10.4941 21.9631 10.4742C21.965 10.4544 21.9665 10.4345 21.9679 10.4146C21.9692 10.3947 21.9703 10.3748 21.9712 10.3549C21.972 10.335 21.9726 10.3151 21.973 10.2951C21.9734 10.2752 21.9735 10.2553 21.9734 10.2353C21.9733 10.2154 21.9729 10.1955 21.9723 10.1755C21.9717 10.1556 21.9709 10.1357 21.9698 10.1158C21.9687 10.0959 21.9674 10.076 21.9658 10.0561C21.9642 10.0362 21.9624 10.0164 21.9604 9.99656C21.9583 9.97673 21.956 9.95693 21.9535 9.93716C21.951 9.91739 21.9482 9.89765 21.9452 9.87793C21.9422 9.85824 21.9389 9.83857 21.9355 9.81894C21.932 9.79932 21.9282 9.77974 21.9243 9.7602C21.9203 9.74066 21.9161 9.72117 21.9117 9.70175C21.9072 9.6823 21.9025 9.66292 21.8976 9.64361C21.7877 9.22606 21.5391 8.84139 21.2457 8.52942C21.2007 8.48237 21.154 8.43713 21.1055 8.39372C21.057 8.35031 21.0069 8.30883 20.9553 8.26929C20.9036 8.22977 20.8504 8.19231 20.7958 8.1569C20.7412 8.1215 20.6853 8.08827 20.6282 8.05721C20.3841 7.92703 20.1095 7.83976 19.831 7.83864C19.6258 7.83781 19.3982 7.89418 19.1655 7.95178C18.7474 8.0553 18.3133 8.16279 17.9648 7.94945C17.7989 7.84789 17.7232 7.69564 17.6779 7.51316L17.6847 7.49639C17.7049 7.44672 17.7269 7.39256 17.7589 7.35106C17.7957 7.30353 17.8523 7.26953 17.9117 7.26042C18.0361 7.24135 18.1627 7.29897 18.2908 7.35733C18.4005 7.40728 18.5114 7.45775 18.623 7.46112C18.7746 7.46569 18.9582 7.4079 19.1408 7.3504C19.2752 7.30808 19.4091 7.2659 19.5295 7.24887C20.1861 7.15596 20.9007 7.46425 21.4154 7.85151C21.9877 8.28202 22.3571 8.83607 22.4587 9.54769L22.4596 9.54767C22.7022 9.54241 22.9649 9.53672 23.2017 9.59668C23.2487 9.60857 23.3019 9.63382 23.3565 9.65969C23.4423 9.70034 23.5313 9.74253 23.6041 9.73675C23.6556 9.70465 23.6783 9.64686 23.6906 9.58913C23.7175 9.46265 23.6842 9.30069 23.6451 9.17885C23.4908 8.69901 23.1723 8.54312 22.8989 8.40933C22.7313 8.32735 22.5808 8.25367 22.4954 8.11882C22.4936 8.11597 22.4918 8.11311 22.4901 8.11025L22.4866 8.10466C22.4844 8.01091 22.4859 7.92602 22.4872 7.84662C22.4923 7.55113 22.4961 7.3317 22.3022 7.01529C22.1005 6.68625 21.8124 6.43257 21.431 6.34339C21.0352 6.25087 20.9372 6.34061 20.7834 6.48155C20.7187 6.54082 20.6441 6.60916 20.5334 6.6768C20.5278 6.68019 20.5222 6.68344 20.5167 6.68674L20.3339 6.6874C20.2522 6.63778 20.1693 6.58148 20.1402 6.4851C20.092 6.32589 20.2465 6.14521 20.3872 5.98058C20.4533 5.90329 20.5164 5.82955 20.554 5.76322C20.43 5.47847 20.2769 5.28283 19.9969 5.13796C19.7626 5.01675 19.4605 4.94327 19.2037 5.03169C18.9199 5.12943 18.8617 5.31153 18.7964 5.51573C18.769 5.60129 18.7404 5.69072 18.6934 5.77946C18.6574 5.84759 18.5948 5.93153 18.514 5.94771C18.4502 5.9605 18.3823 5.92484 18.3316 5.88992C18.2359 5.82406 18.1681 5.74115 18.1508 5.6233C18.1101 5.34674 18.2718 5.09661 18.4231 4.8822ZM20.0237 9.00993C20.0484 9.01018 20.073 9.01121 20.0976 9.01303C20.2684 9.12522 20.3631 9.26371 20.4039 9.46694C20.466 9.77563 20.4169 10.1119 20.2389 10.374C20.0108 10.7098 19.6493 10.9081 19.255 10.9782C18.8395 11.052 18.379 10.9786 18.0311 10.7321C17.9062 10.6436 17.7957 10.5361 17.6885 10.4274C17.5898 10.2944 17.5348 10.1547 17.5574 9.98708C17.5623 9.95029 17.5719 9.91463 17.5822 9.87905L17.5944 9.86714C17.6574 9.8052 17.7211 9.74266 17.8164 9.74301C17.9194 9.74339 17.9968 9.81141 18.0629 9.88316C18.0924 9.91527 18.1203 9.94631 18.1472 9.97615C18.3644 10.2177 18.5109 10.3806 18.8952 10.3967C19.1583 10.4078 19.4578 10.3305 19.6518 10.1437C19.7601 10.0393 19.8059 9.90793 19.8049 9.75905C19.8046 9.70417 19.7924 9.63225 19.7793 9.55487C19.7497 9.38043 19.7154 9.17828 19.8015 9.08126C19.8544 9.02171 19.9489 9.00956 20.0237 9.00993Z" fill="#5964F5"/>
<path d="M21.058 18.2686C20.8348 18.2706 20.6408 18.264 20.4265 18.1981C20.3804 18.1986 20.2594 18.2745 20.1483 18.3441C20.077 18.3889 20.0097 18.4311 19.9689 18.4492C19.7269 18.5563 19.47 18.6334 19.2042 18.6433C19.1515 18.6453 19.0988 18.6453 19.0462 18.6432C18.9935 18.6411 18.9409 18.6369 18.8886 18.6307C18.8362 18.6245 18.7842 18.6162 18.7325 18.6059C18.6808 18.5957 18.6296 18.5834 18.5788 18.5691C18.5476 18.5606 18.5164 18.5515 18.4851 18.5424C18.3854 18.5135 18.2848 18.4843 18.1824 18.472L18.1626 18.4698C17.9674 18.5559 17.7661 18.6345 17.5563 18.6763C17.02 18.7831 16.6661 18.6151 16.23 18.3244C16.2038 18.5907 16.2263 23.0725 16.2263 23.0725C17.0587 23.1008 18.5486 22.9727 19.3243 22.7205C19.6103 22.6275 19.8714 22.4822 20.0121 22.2042C20.1571 21.9175 20.1771 21.5458 20.1952 21.2079C20.1998 21.1231 20.2042 21.0403 20.2105 20.9616C20.2287 20.7332 20.2557 20.4995 20.2968 20.2741C20.4235 19.5788 20.7204 18.9157 21.0454 18.2926L21.058 18.2686Z" fill="#5964F5"/>
<path d="M19.3238 23.6514C19.2884 23.5336 19.1755 23.4659 19.0754 23.4083C18.8734 23.4218 18.671 23.4598 18.4688 23.4977C18.3192 23.5258 18.1697 23.5538 18.0206 23.5719C17.5603 23.6266 17.0984 23.6632 16.6352 23.6819C16.172 23.7006 15.7087 23.7013 15.2454 23.6839C14.7564 23.6611 14.2692 23.6334 13.7824 23.5801C13.668 23.5676 13.5535 23.5505 13.439 23.5334C13.261 23.5068 13.0827 23.4802 12.9045 23.4708C12.812 23.4659 12.7122 23.4662 12.6248 23.5C12.5602 23.525 12.5057 23.567 12.4791 23.6326C12.4466 23.7126 12.4617 23.8117 12.497 23.8882C12.5511 24.0057 12.6406 24.0759 12.7585 24.1223C13.738 24.4829 15.3564 24.42 16.5155 24.375C16.636 24.3703 16.7516 24.3658 16.861 24.362C16.9809 24.3578 17.1017 24.3551 17.2228 24.3524L17.2233 24.3524C17.7357 24.3409 18.255 24.3292 18.7512 24.2067C18.9442 24.159 19.2012 24.0607 19.3028 23.8779C19.3393 23.8122 19.3454 23.723 19.3238 23.6514Z" fill="#5964F5"/>
<path d="M19.2621 24.9391C19.2016 24.8004 19.043 24.7296 18.9123 24.6737C18.6746 24.7295 18.422 24.7643 18.1765 24.7983C18.1489 24.8021 18.1215 24.8058 18.0942 24.8097C18.068 24.8133 18.0419 24.817 18.0159 24.8207C16.7116 25.0068 15.3979 25.0561 14.0878 24.8981C13.8296 24.867 13.5752 24.8183 13.3207 24.7696C13.1419 24.7353 12.9631 24.7011 12.783 24.6729C12.6726 24.7249 12.5634 24.7912 12.5139 24.9089C12.5103 24.9178 12.5071 24.9268 12.5044 24.9359C12.5017 24.9451 12.4995 24.9543 12.4977 24.9637C12.4966 24.9695 12.4957 24.9753 12.495 24.9811C12.4946 24.9848 12.4942 24.9884 12.4939 24.9921C12.4931 25.0016 12.4929 25.0111 12.4931 25.0207C12.4933 25.0302 12.494 25.0397 12.4952 25.0492C12.4963 25.0587 12.498 25.0681 12.5002 25.0774C12.5023 25.0867 12.505 25.0959 12.5081 25.1049C12.5112 25.1139 12.5148 25.1227 12.5188 25.1314C12.5828 25.2712 12.7138 25.3224 12.847 25.3739C13.3853 25.4766 13.915 25.5696 14.4631 25.6079C14.5992 25.6174 14.7355 25.6204 14.8717 25.6234C14.9726 25.6256 15.0736 25.6279 15.1744 25.6327C15.2707 25.6374 15.3661 25.6454 15.4613 25.6533C15.612 25.6659 15.7623 25.6785 15.9157 25.6779C16.0553 25.6772 16.1938 25.6645 16.3319 25.6517C16.4629 25.6396 16.5936 25.6275 16.7247 25.6259C17.2681 25.6191 17.7899 25.5981 18.3292 25.525L18.3696 25.5196C18.5447 25.4961 18.7231 25.4721 18.8909 25.4173C19.031 25.3715 19.1917 25.2904 19.256 25.1501C19.2862 25.084 19.2914 25.0064 19.2621 24.9391Z" fill="#5964F5"/>
<path d="M18.3537 26.528C18.507 26.4476 18.591 26.226 18.6407 26.0686L18.5084 26.085C18.0805 26.138 17.6519 26.1912 17.2218 26.2215C16.4243 26.2779 15.6144 26.2725 14.8165 26.2286C14.5312 26.2114 14.2468 26.1857 13.9631 26.1516C13.9023 26.1438 13.8414 26.1351 13.7804 26.1264C13.591 26.0993 13.401 26.0722 13.21 26.0713L13.2149 26.1031C13.2391 26.2682 13.2871 26.3373 13.4094 26.4455C13.5248 26.5239 13.6413 26.5761 13.7739 26.6186C14.1862 26.7506 14.639 26.7844 15.0692 26.8093C15.7798 26.8504 17.7623 26.8381 18.3537 26.528Z" fill="#5964F5"/>
<path fill-rule="evenodd" clip-rule="evenodd" d="M16.8191 0.220372C16.3102 -0.0734576 15.6832 -0.0734571 15.1743 0.220372L2.74236 7.39793C2.23343 7.69176 1.91992 8.23478 1.91992 8.82244V23.1776C1.91992 23.7652 2.23343 24.3082 2.74236 24.6021L15.1743 31.7796C15.6832 32.0735 16.3102 32.0735 16.8191 31.7796L29.251 24.6021C29.76 24.3082 30.0735 23.7652 30.0735 23.1776V8.82244C30.0735 8.23478 29.76 7.69176 29.251 7.39793L16.8191 0.220372ZM17.2695 3.84985C17.3503 3.84004 17.4384 3.83515 17.5192 3.84674C18.0749 3.92099 18.5089 4.07709 18.9169 4.47149C19.3323 4.34338 19.7948 4.34278 20.1861 4.54756C20.5182 4.72133 20.7839 5.01155 20.9741 5.33067C21.005 5.38258 21.0337 5.4362 21.0623 5.48983C21.0988 5.55808 21.1353 5.62634 21.1765 5.69106C21.756 5.74851 22.3183 6.02502 22.6887 6.47949C22.9931 6.85296 23.1137 7.30496 23.0934 7.78125C23.5417 7.96227 23.9297 8.28105 24.121 8.73319C24.3189 9.20072 24.2742 9.68419 24.1821 10.1696C24.4757 10.4449 24.6277 10.7933 24.6392 11.1961C24.6519 11.6401 24.4949 12.1508 24.2681 12.5295C24.4571 13.2072 24.4758 13.8342 24.1228 14.4608C24.0858 14.5265 24.0412 14.5901 23.9964 14.654C23.9254 14.7551 23.854 14.8568 23.8117 14.9686C23.7735 15.0695 23.7587 15.1834 23.744 15.2964C23.7346 15.3693 23.7252 15.4418 23.7095 15.5101C23.5557 16.1825 23.1726 16.5782 22.5747 16.8972C22.5076 17.3892 22.2147 17.7684 21.9219 18.1474C21.8426 18.2501 21.7633 18.3527 21.6885 18.4576C21.6085 18.5715 21.5338 18.6888 21.4644 18.8095C21.3949 18.9301 21.3311 19.0537 21.2728 19.1801C21.0637 19.6318 20.928 20.1223 20.8466 20.6127C20.8104 20.8426 20.7837 21.0737 20.7666 21.3058C20.7614 21.3735 20.7576 21.4433 20.7537 21.5142C20.7339 21.8735 20.7126 22.2607 20.5127 22.5585C20.386 22.7472 20.2325 22.8638 20.0812 22.9788C19.9834 23.0531 19.8863 23.1269 19.7981 23.2189C19.9321 23.4548 19.994 23.6805 19.9208 23.9484C19.8708 24.1311 19.7624 24.2846 19.6547 24.4371L19.6475 24.4473C19.8152 24.6486 19.9115 24.9079 19.8855 25.1723C19.875 25.2789 19.8456 25.3855 19.7941 25.4796C19.7391 25.5798 19.6586 25.6532 19.5783 25.7264C19.5077 25.7908 19.4373 25.855 19.3846 25.9371C19.3026 26.065 19.2438 26.2091 19.1848 26.3537C19.0863 26.595 18.9873 26.8378 18.7789 27.0093C18.6231 27.1376 18.3382 27.2 18.0675 27.2594C17.9076 27.2944 17.7525 27.3284 17.632 27.3742C17.2151 27.8988 16.993 28.053 16.3117 28.1304C15.6701 28.2032 15.0248 28.1653 14.5006 27.7464C14.4782 27.7287 14.4566 27.7103 14.4356 27.691C14.3559 27.6108 14.2972 27.5162 14.2381 27.4209C14.2276 27.4039 14.217 27.3869 14.2063 27.3699L14.2035 27.3688C14.2017 27.368 14.1999 27.3673 14.1982 27.3665C14.1959 27.3656 14.1936 27.3647 14.1914 27.3638C14.0971 27.3266 13.9945 27.3047 13.8934 27.283C13.8563 27.2751 13.8194 27.2672 13.7832 27.2586C13.2868 27.1409 12.905 26.9836 12.6855 26.4978C12.6001 26.3088 12.5439 26.106 12.4911 25.9057C12.2127 25.7237 11.9584 25.4839 11.8926 25.1432C11.8549 24.9476 11.9049 24.7343 12.0199 24.5719C12.0515 24.5272 12.0866 24.4845 12.1225 24.4431C11.9427 24.2115 11.8213 23.9685 11.8592 23.6672C11.8796 23.5052 11.9502 23.3634 12.0221 23.2192L12.0242 23.2148C11.6059 22.9645 11.265 22.6646 11.1413 22.175C11.0766 21.9192 11.0551 21.6515 11.0337 21.3855C11.024 21.2654 11.0144 21.1456 11.0008 21.0274C10.9325 20.4324 10.7433 19.839 10.504 19.2922C10.1958 18.5878 9.79637 17.9369 9.35281 17.3107C9.27081 17.195 9.1868 17.0802 9.10272 16.9654C8.89195 16.6776 8.68077 16.3892 8.49979 16.0824C6.94408 13.4451 6.99357 10.2694 8.57006 7.65337C8.60438 7.59697 8.63937 7.54099 8.67505 7.48543C8.7107 7.42987 8.74703 7.37477 8.78405 7.32011C8.82106 7.26543 8.85873 7.21121 8.89704 7.15746C8.93538 7.1037 8.97435 7.05042 9.01397 6.99762C9.05358 6.94482 9.09383 6.8925 9.13471 6.84066C9.17559 6.78884 9.2171 6.73751 9.25922 6.68669C9.30136 6.63588 9.34411 6.58558 9.38746 6.53579C9.43081 6.48602 9.47476 6.43677 9.51931 6.38805C9.56385 6.33935 9.60898 6.29119 9.6547 6.24356C9.7004 6.19595 9.74668 6.1489 9.79353 6.1024C9.8404 6.05593 9.88781 6.01002 9.93578 5.96467C9.98376 5.91934 10.0323 5.8746 10.0813 5.83044C10.1304 5.78628 10.18 5.74272 10.2301 5.69977C10.2802 5.65682 10.3308 5.61448 10.382 5.57275C10.4331 5.53105 10.4847 5.48995 10.5369 5.44947C10.589 5.40901 10.6416 5.36919 10.6947 5.33001C10.7478 5.29081 10.8014 5.25228 10.8554 5.2144C10.9095 5.17653 10.964 5.1393 11.0189 5.10273C11.0738 5.06618 11.1292 5.03029 11.185 4.99508C11.2408 4.95987 11.2971 4.92534 11.3537 4.89148C11.4104 4.85765 11.4674 4.8245 11.5249 4.79203C11.5823 4.75957 11.6402 4.72782 11.6984 4.69676C11.7566 4.66571 11.8152 4.63537 11.8742 4.60575C11.9331 4.57611 11.9924 4.54721 12.0521 4.51902C12.1118 4.49084 12.1718 4.46339 12.2321 4.43666C12.2924 4.40994 12.353 4.38395 12.414 4.3587C12.475 4.33345 12.5362 4.30894 12.5978 4.28517C12.6593 4.2614 12.7212 4.23839 12.7833 4.21613C12.8454 4.19387 12.9077 4.17237 12.9704 4.15162C13.033 4.13088 13.0959 4.1109 13.159 4.09169C13.2221 4.07247 13.2855 4.05403 13.349 4.03635C13.4126 4.01868 13.4764 4.00178 13.5404 3.98565C14.1473 3.83547 14.8075 3.81545 15.3607 4.14761C15.5907 4.28571 15.78 4.46658 15.9482 4.67389C16.2619 4.26871 16.7522 3.91267 17.2695 3.84985Z" fill="#5964F5"/>
</svg>
