<svg width="100" height="100" viewBox="0 0 100 100" fill="none" xmlns="http://www.w3.org/2000/svg">
<path fill-rule="evenodd" clip-rule="evenodd" d="M47.4198 0.688663C49.0102 -0.229554 50.9697 -0.229555 52.5601 0.688662L91.4097 23.1185C93.0001 24.0368 93.9799 25.7337 93.9799 27.5701V72.4299C93.9799 74.2663 93.0001 75.9632 91.4097 76.8815L52.5601 99.3113C50.9697 100.23 49.0102 100.23 47.4198 99.3113L8.57013 76.8815C6.97973 75.9633 6 74.2663 6 72.4299V27.5701C6 25.7337 6.97973 24.0368 8.57012 23.1185L47.4198 0.688663Z" fill="#5964F5"/>
<path d="M32.6474 78.52V81H30.1699V78.52H32.6474ZM32.6474 76.04V78.52H30.1699V76.04H32.6474ZM32.6474 73.56V76.04H30.1699V73.56H32.6474ZM32.6474 71.08V73.56H30.1699V71.08H32.6474ZM32.6474 68.6V71.08H30.1699V68.6H32.6474ZM32.6474 66.12V68.6H30.1699V66.12H32.6474ZM32.6474 63.64V66.12H30.1699V63.64H32.6474ZM32.6474 61.16V63.64H30.1699V61.16H32.6474ZM32.6474 58.68V61.16H30.1699V58.68H32.6474ZM32.6474 56.2V58.68H30.1699V56.2H32.6474ZM32.6474 53.72V56.2H30.1699V53.72H32.6474ZM32.6474 51.24V53.72H30.1699V51.24H32.6474ZM32.6474 48.76V51.24H30.1699V48.76H32.6474ZM32.6474 46.28V48.76H30.1699V46.28H32.6474ZM32.6474 43.8V46.28H30.1699V43.8H32.6474ZM35.1248 43.8V46.28H32.6474V43.8H35.1248ZM35.1248 46.28V48.76H32.6474V46.28H35.1248ZM35.1248 48.76V51.24H32.6474V48.76H35.1248ZM35.1248 51.24V53.72H32.6474V51.24H35.1248ZM35.1248 53.72V56.2H32.6474V53.72H35.1248ZM35.1248 56.2V58.68H32.6474V56.2H35.1248ZM35.1248 58.68V61.16H32.6474V58.68H35.1248ZM37.6023 61.16V63.64H35.1248V61.16H37.6023ZM37.6023 63.64V66.12H35.1248V63.64H37.6023ZM37.6023 66.12V68.6H35.1248V66.12H37.6023ZM37.6023 68.6V71.08H35.1248V68.6H37.6023ZM37.6023 71.08V73.56H35.1248V71.08H37.6023ZM37.6023 73.56V76.04H35.1248V73.56H37.6023ZM37.6023 76.04V78.52H35.1248V76.04H37.6023ZM37.6023 78.52V81H35.1248V78.52H37.6023ZM40.0798 78.52V81H37.6023V78.52H40.0798ZM42.5572 78.52V81H40.0798V78.52H42.5572ZM42.5572 76.04V78.52H40.0798V76.04H42.5572ZM42.5572 73.56V76.04H40.0798V73.56H42.5572ZM42.5572 71.08V73.56H40.0798V71.08H42.5572ZM42.5572 68.6V71.08H40.0798V68.6H42.5572ZM42.5572 66.12V68.6H40.0798V66.12H42.5572ZM42.5572 63.64V66.12H40.0798V63.64H42.5572ZM42.5572 61.16V63.64H40.0798V61.16H42.5572ZM40.0798 61.16V63.64H37.6023V61.16H40.0798ZM40.0798 58.68V61.16H37.6023V58.68H40.0798ZM40.0798 63.64V66.12H37.6023V63.64H40.0798ZM40.0798 66.12V68.6H37.6023V66.12H40.0798ZM40.0798 68.6V71.08H37.6023V68.6H40.0798ZM40.0798 71.08V73.56H37.6023V71.08H40.0798ZM40.0798 73.56V76.04H37.6023V73.56H40.0798ZM40.0798 76.04V78.52H37.6023V76.04H40.0798ZM35.1248 78.52V81H32.6474V78.52H35.1248ZM35.1248 76.04V78.52H32.6474V76.04H35.1248ZM35.1248 73.56V76.04H32.6474V73.56H35.1248ZM35.1248 71.08V73.56H32.6474V71.08H35.1248ZM35.1248 68.6V71.08H32.6474V68.6H35.1248ZM35.1248 66.12V68.6H32.6474V66.12H35.1248ZM35.1248 63.64V66.12H32.6474V63.64H35.1248ZM35.1248 61.16V63.64H32.6474V61.16H35.1248ZM32.6474 36.36V38.84H30.1699V36.36H32.6474ZM32.6474 38.84V41.32H30.1699V38.84H32.6474ZM32.6474 41.32V43.8H30.1699V41.32H32.6474ZM40.0798 31.4V33.88H37.6023V31.4H40.0798ZM40.0798 36.36V38.84H37.6023V36.36H40.0798ZM40.0798 38.84V41.32H37.6023V38.84H40.0798ZM40.0798 41.32V43.8H37.6023V41.32H40.0798ZM40.0798 43.8V46.28H37.6023V43.8H40.0798ZM40.0798 46.28V48.76H37.6023V46.28H40.0798ZM40.0798 48.76V51.24H37.6023V48.76H40.0798ZM40.0798 51.24V53.72H37.6023V51.24H40.0798ZM42.5572 53.72V56.2H40.0798V53.72H42.5572ZM42.5572 56.2V58.68H40.0798V56.2H42.5572ZM42.5572 58.68V61.16H40.0798V58.68H42.5572ZM42.5572 51.24V53.72H40.0798V51.24H42.5572ZM42.5572 48.76V51.24H40.0798V48.76H42.5572ZM42.5572 46.28V48.76H40.0798V46.28H42.5572ZM42.5572 43.8V46.28H40.0798V43.8H42.5572ZM42.5572 41.32V43.8H40.0798V41.32H42.5572ZM42.5572 38.84V41.32H40.0798V38.84H42.5572ZM42.5572 36.36V38.84H40.0798V36.36H42.5572ZM42.5572 33.88V36.36H40.0798V33.88H42.5572ZM42.5572 31.4V33.88H40.0798V31.4H42.5572ZM42.5572 28.92V31.4H40.0798V28.92H42.5572ZM40.0798 33.88V36.36H37.6023V33.88H40.0798ZM42.5572 26.44V28.92H40.0798V26.44H42.5572ZM42.5572 23.96V26.44H40.0798V23.96H42.5572ZM37.6023 31.4V33.88H35.1248V31.4H37.6023ZM37.6023 33.88V36.36H35.1248V33.88H37.6023ZM37.6023 36.36V38.84H35.1248V36.36H37.6023ZM35.1248 38.84V41.32H32.6474V38.84H35.1248ZM35.1248 41.32V43.8H32.6474V41.32H35.1248ZM35.1248 36.36V38.84H32.6474V36.36H35.1248ZM35.1248 33.88V36.36H32.6474V33.88H35.1248ZM37.6023 38.84V41.32H35.1248V38.84H37.6023ZM37.6023 41.32V43.8H35.1248V41.32H37.6023ZM37.6023 43.8V46.28H35.1248V43.8H37.6023ZM37.6023 46.28V48.76H35.1248V46.28H37.6023ZM37.6023 48.76V51.24H35.1248V48.76H37.6023ZM37.6023 51.24V53.72H35.1248V51.24H37.6023ZM37.6023 53.72V56.2H35.1248V53.72H37.6023ZM37.6023 56.2V58.68H35.1248V56.2H37.6023ZM37.6023 58.68V61.16H35.1248V58.68H37.6023ZM40.0798 56.2V58.68H37.6023V56.2H40.0798ZM40.0798 53.72V56.2H37.6023V53.72H40.0798ZM59.8994 78.52V81H57.422V78.52H59.8994ZM59.8994 76.04V78.52H57.422V76.04H59.8994ZM59.8994 73.56V76.04H57.422V73.56H59.8994ZM59.8994 71.08V73.56H57.422V71.08H59.8994ZM59.8994 68.6V71.08H57.422V68.6H59.8994ZM59.8994 66.12V68.6H57.422V66.12H59.8994ZM59.8994 63.64V66.12H57.422V63.64H59.8994ZM59.8994 61.16V63.64H57.422V61.16H59.8994ZM59.8994 58.68V61.16H57.422V58.68H59.8994ZM59.8994 56.2V58.68H57.422V56.2H59.8994ZM59.8994 53.72V56.2H57.422V53.72H59.8994ZM59.8994 51.24V53.72H57.422V51.24H59.8994ZM59.8994 48.76V51.24H57.422V48.76H59.8994ZM59.8994 46.28V48.76H57.422V46.28H59.8994ZM59.8994 43.8V46.28H57.422V43.8H59.8994ZM62.3769 43.8V46.28H59.8994V43.8H62.3769ZM62.3769 46.28V48.76H59.8994V46.28H62.3769ZM62.3769 48.76V51.24H59.8994V48.76H62.3769ZM62.3769 51.24V53.72H59.8994V51.24H62.3769ZM62.3769 53.72V56.2H59.8994V53.72H62.3769ZM62.3769 56.2V58.68H59.8994V56.2H62.3769ZM62.3769 58.68V61.16H59.8994V58.68H62.3769ZM64.8544 61.16V63.64H62.3769V61.16H64.8544ZM64.8544 63.64V66.12H62.3769V63.64H64.8544ZM64.8544 66.12V68.6H62.3769V66.12H64.8544ZM64.8544 68.6V71.08H62.3769V68.6H64.8544ZM64.8544 71.08V73.56H62.3769V71.08H64.8544ZM64.8544 73.56V76.04H62.3769V73.56H64.8544ZM64.8544 76.04V78.52H62.3769V76.04H64.8544ZM64.8544 78.52V81H62.3769V78.52H64.8544ZM67.3318 78.52V81H64.8544V78.52H67.3318ZM69.8093 78.52V81H67.3318V78.52H69.8093ZM69.8093 76.04V78.52H67.3318V76.04H69.8093ZM69.8093 73.56V76.04H67.3318V73.56H69.8093ZM69.8093 71.08V73.56H67.3318V71.08H69.8093ZM69.8093 68.6V71.08H67.3318V68.6H69.8093ZM69.8093 66.12V68.6H67.3318V66.12H69.8093ZM69.8093 63.64V66.12H67.3318V63.64H69.8093ZM69.8093 61.16V63.64H67.3318V61.16H69.8093ZM67.3318 61.16V63.64H64.8544V61.16H67.3318ZM67.3318 58.68V61.16H64.8544V58.68H67.3318ZM67.3318 63.64V66.12H64.8544V63.64H67.3318ZM67.3318 66.12V68.6H64.8544V66.12H67.3318ZM67.3318 68.6V71.08H64.8544V68.6H67.3318ZM67.3318 71.08V73.56H64.8544V71.08H67.3318ZM67.3318 73.56V76.04H64.8544V73.56H67.3318ZM67.3318 76.04V78.52H64.8544V76.04H67.3318ZM62.3769 78.52V81H59.8994V78.52H62.3769ZM62.3769 76.04V78.52H59.8994V76.04H62.3769ZM62.3769 73.56V76.04H59.8994V73.56H62.3769ZM62.3769 71.08V73.56H59.8994V71.08H62.3769ZM62.3769 68.6V71.08H59.8994V68.6H62.3769ZM62.3769 66.12V68.6H59.8994V66.12H62.3769ZM62.3769 63.64V66.12H59.8994V63.64H62.3769ZM62.3769 61.16V63.64H59.8994V61.16H62.3769ZM59.8994 23.96V26.44H57.422V23.96H59.8994ZM59.8994 26.44V28.92H57.422V26.44H59.8994ZM59.8994 28.92V31.4H57.422V28.92H59.8994ZM59.8994 31.4V33.88H57.422V31.4H59.8994ZM59.8994 33.88V36.36H57.422V33.88H59.8994ZM59.8994 36.36V38.84H57.422V36.36H59.8994ZM59.8994 38.84V41.32H57.422V38.84H59.8994ZM59.8994 41.32V43.8H57.422V41.32H59.8994ZM67.3318 31.4V33.88H64.8544V31.4H67.3318ZM67.3318 36.36V38.84H64.8544V36.36H67.3318ZM67.3318 38.84V41.32H64.8544V38.84H67.3318ZM67.3318 41.32V43.8H64.8544V41.32H67.3318ZM67.3318 43.8V46.28H64.8544V43.8H67.3318ZM67.3318 46.28V48.76H64.8544V46.28H67.3318ZM67.3318 48.76V51.24H64.8544V48.76H67.3318ZM67.3318 51.24V53.72H64.8544V51.24H67.3318ZM69.8093 53.72V56.2H67.3318V53.72H69.8093ZM69.8093 56.2V58.68H67.3318V56.2H69.8093ZM69.8093 58.68V61.16H67.3318V58.68H69.8093ZM69.8093 51.24V53.72H67.3318V51.24H69.8093ZM69.8093 48.76V51.24H67.3318V48.76H69.8093ZM69.8093 46.28V48.76H67.3318V46.28H69.8093ZM69.8093 43.8V46.28H67.3318V43.8H69.8093ZM69.8093 41.32V43.8H67.3318V41.32H69.8093ZM69.8093 38.84V41.32H67.3318V38.84H69.8093ZM69.8093 36.36V38.84H67.3318V36.36H69.8093ZM69.8093 33.88V36.36H67.3318V33.88H69.8093ZM67.3318 33.88V36.36H64.8544V33.88H67.3318ZM64.8544 28.92V31.4H62.3769V28.92H64.8544ZM64.8544 31.4V33.88H62.3769V31.4H64.8544ZM64.8544 33.88V36.36H62.3769V33.88H64.8544ZM64.8544 36.36V38.84H62.3769V36.36H64.8544ZM62.3769 38.84V41.32H59.8994V38.84H62.3769ZM62.3769 41.32V43.8H59.8994V41.32H62.3769ZM62.3769 36.36V38.84H59.8994V36.36H62.3769ZM62.3769 33.88V36.36H59.8994V33.88H62.3769ZM62.3769 31.4V33.88H59.8994V31.4H62.3769ZM62.3769 28.92V31.4H59.8994V28.92H62.3769ZM62.3769 26.44V28.92H59.8994V26.44H62.3769ZM64.8544 38.84V41.32H62.3769V38.84H64.8544ZM64.8544 41.32V43.8H62.3769V41.32H64.8544ZM64.8544 43.8V46.28H62.3769V43.8H64.8544ZM64.8544 46.28V48.76H62.3769V46.28H64.8544ZM64.8544 48.76V51.24H62.3769V48.76H64.8544ZM64.8544 51.24V53.72H62.3769V51.24H64.8544ZM64.8544 53.72V56.2H62.3769V53.72H64.8544ZM64.8544 56.2V58.68H62.3769V56.2H64.8544ZM64.8544 58.68V61.16H62.3769V58.68H64.8544ZM67.3318 56.2V58.68H64.8544V56.2H67.3318ZM67.3318 53.72V56.2H64.8544V53.72H67.3318ZM47.5121 19V21.48H45.0347V19H47.5121ZM49.9896 19V21.48H47.5121V19H49.9896ZM52.4671 19V21.48H49.9896V19H52.4671ZM54.9445 19V21.48H52.4671V19H54.9445ZM57.422 21.48V23.96H54.9445V21.48H57.422ZM54.9445 21.48V23.96H52.4671V21.48H54.9445ZM52.4671 21.48V23.96H49.9896V21.48H52.4671ZM49.9896 21.48V23.96H47.5121V21.48H49.9896ZM47.5121 21.48V23.96H45.0347V21.48H47.5121ZM45.0347 21.48V23.96H42.5572V21.48H45.0347ZM45.0347 23.96V26.44H42.5572V23.96H45.0347ZM45.0347 26.44V28.92H42.5572V26.44H45.0347ZM47.5121 23.96V26.44H45.0347V23.96H47.5121ZM49.9896 23.96V26.44H47.5121V23.96H49.9896ZM52.4671 23.96V26.44H49.9896V23.96H52.4671ZM54.9445 23.96V26.44H52.4671V23.96H54.9445ZM57.422 23.96V26.44H54.9445V23.96H57.422ZM57.422 26.44V28.92H54.9445V26.44H57.422ZM54.9445 26.44V28.92H52.4671V26.44H54.9445ZM52.4671 26.44V28.92H49.9896V26.44H52.4671ZM49.9896 26.44V28.92H47.5121V26.44H49.9896ZM47.5121 26.44V28.92H45.0347V26.44H47.5121ZM45.0347 28.92V31.4H42.5572V28.92H45.0347ZM47.5121 28.92V31.4H45.0347V28.92H47.5121ZM57.422 28.92V31.4H54.9445V28.92H57.422ZM54.9445 28.92V31.4H52.4671V28.92H54.9445ZM57.422 31.4V33.88H54.9445V31.4H57.422ZM45.0347 31.4V33.88H42.5572V31.4H45.0347ZM40.0798 26.44V28.92H37.6023V26.44H40.0798ZM40.0798 28.92V31.4H37.6023V28.92H40.0798ZM37.6023 28.92V31.4H35.1248V28.92H37.6023ZM35.1248 31.4V33.88H32.6474V31.4H35.1248ZM32.6474 33.88V36.36H30.1699V33.88H32.6474ZM45.0347 33.88V36.36H42.5572V33.88H45.0347ZM47.5121 31.4V33.88H45.0347V31.4H47.5121ZM49.9896 28.92V31.4H47.5121V28.92H49.9896ZM52.4671 28.92V31.4H49.9896V28.92H52.4671ZM54.9445 31.4V33.88H52.4671V31.4H54.9445ZM57.422 33.88V36.36H54.9445V33.88H57.422ZM45.0347 63.64V66.12H42.5572V63.64H45.0347ZM47.5121 63.64V66.12H45.0347V63.64H47.5121ZM49.9896 63.64V66.12H47.5121V63.64H49.9896ZM52.4671 63.64V66.12H49.9896V63.64H52.4671ZM54.9445 63.64V66.12H52.4671V63.64H54.9445ZM57.422 63.64V66.12H54.9445V63.64H57.422ZM57.422 61.16V63.64H54.9445V61.16H57.422ZM54.9445 61.16V63.64H52.4671V61.16H54.9445ZM52.4671 61.16V63.64H49.9896V61.16H52.4671ZM49.9896 61.16V63.64H47.5121V61.16H49.9896ZM47.5121 61.16V63.64H45.0347V61.16H47.5121ZM45.0347 61.16V63.64H42.5572V61.16H45.0347ZM45.0347 58.68V61.16H42.5572V58.68H45.0347ZM47.5121 58.68V61.16H45.0347V58.68H47.5121ZM49.9896 58.68V61.16H47.5121V58.68H49.9896ZM52.4671 58.68V61.16H49.9896V58.68H52.4671ZM54.9445 58.68V61.16H52.4671V58.68H54.9445ZM57.422 58.68V61.16H54.9445V58.68H57.422ZM57.422 56.2V58.68H54.9445V56.2H57.422ZM54.9445 56.2V58.68H52.4671V56.2H54.9445ZM52.4671 56.2V58.68H49.9896V56.2H52.4671ZM49.9896 56.2V58.68H47.5121V56.2H49.9896ZM47.5121 56.2V58.68H45.0347V56.2H47.5121ZM45.0347 56.2V58.68H42.5572V56.2H45.0347ZM45.0347 53.72V56.2H42.5572V53.72H45.0347ZM47.5121 53.72V56.2H45.0347V53.72H47.5121ZM49.9896 53.72V56.2H47.5121V53.72H49.9896ZM52.4671 53.72V56.2H49.9896V53.72H52.4671ZM54.9445 53.72V56.2H52.4671V53.72H54.9445ZM57.422 53.72V56.2H54.9445V53.72H57.422ZM49.9896 31.4V33.88H47.5121V31.4H49.9896ZM52.4671 31.4V33.88H49.9896V31.4H52.4671ZM47.5121 33.88V36.36H45.0347V33.88H47.5121ZM45.0347 36.36V38.84H42.5572V36.36H45.0347ZM54.9445 33.88V36.36H52.4671V33.88H54.9445ZM57.422 36.36V38.84H54.9445V36.36H57.422Z" fill="white"/>
</svg>
